<svg width="14" height="13" viewBox="0 0 14 13" fill="none" xmlns="http://www.w3.org/2000/svg">
<path d="M4.35937 2.58354C4.39175 2.59163 4.40483 2.59936 4.40738 2.60093L4.4117 2.60525C4.41378 2.60991 4.41724 2.61883 4.4211 2.63361C4.43172 2.67434 4.44 2.73957 4.44 2.836V10.432C4.44 10.5279 4.43182 10.5959 4.42046 10.6414C4.41653 10.6571 4.41267 10.6683 4.40958 10.6759C4.40075 10.679 4.38762 10.6829 4.36901 10.6868C4.31959 10.6971 4.24804 10.704 4.15 10.704H3.178C3.07996 10.704 3.00841 10.6971 2.95899 10.6868C2.94739 10.6843 2.93792 10.6819 2.9303 10.6797C2.92808 10.6721 2.92566 10.6626 2.92325 10.651C2.91295 10.6016 2.906 10.53 2.906 10.432V2.836C2.906 2.73753 2.91302 2.66856 2.92279 2.62361C2.92548 2.61128 2.92802 2.60232 2.93005 2.59613C2.93756 2.59281 2.94985 2.58823 2.96863 2.58354C3.01406 2.57218 3.08207 2.564 3.178 2.564H4.15C4.24593 2.564 4.31394 2.57218 4.35937 2.58354ZM9.23767 4.922H9.48767V4.672V2.836C9.48767 2.73957 9.49595 2.67434 9.50658 2.63361C9.51043 2.61882 9.51389 2.60991 9.51598 2.60525L9.5203 2.60093C9.52284 2.59936 9.53592 2.59163 9.56831 2.58354C9.61373 2.57218 9.68174 2.564 9.77767 2.564H10.3537C10.4569 2.564 10.5274 2.57239 10.572 2.58354C10.588 2.58752 10.5978 2.59114 10.6031 2.5934L10.6082 2.59951L10.6155 2.60566C10.6177 2.61043 10.621 2.61925 10.6248 2.6336C10.6354 2.67434 10.6437 2.73957 10.6437 2.836V3.664C10.6437 4.4321 10.4835 5.11118 10.1687 5.70708C10.1687 5.70713 10.1686 5.70717 10.1686 5.70722L7.41489 10.8907L7.38567 10.9457V11.008V12.268V12.518H7.63567H12.6037H12.8537V12.268V10.954V10.704H12.6037H9.8796L12.1233 6.29975C12.1235 6.29936 12.1237 6.29897 12.1239 6.29858C12.5606 5.46214 12.7817 4.60107 12.7817 3.718V2.584C12.7817 2.01309 12.6284 1.54013 12.2795 1.21349C11.9337 0.889768 11.4383 0.75 10.8397 0.75H9.29167C8.69848 0.75 8.20711 0.890073 7.86434 1.21441C7.51899 1.5412 7.36767 2.01383 7.36767 2.584V4.672V4.922H7.61767H9.23767ZM6.578 10.684V2.584C6.578 2.01383 6.42668 1.5412 6.08133 1.21441C5.73856 0.890073 5.2472 0.75 4.654 0.75H2.692C2.09342 0.75 1.59794 0.889768 1.25214 1.21349C0.903242 1.54013 0.75 2.01309 0.75 2.584V10.684C0.75 11.2549 0.903242 11.7279 1.25214 12.0545C1.59794 12.3782 2.09342 12.518 2.692 12.518H4.654C5.2472 12.518 5.73856 12.3779 6.08133 12.0536C6.42668 11.7268 6.578 11.2542 6.578 10.684Z" stroke="#DCDCDC" stroke-width="0.5"/>
</svg>
