<svg width="14" height="14" viewBox="0 0 14 14" fill="none" xmlns="http://www.w3.org/2000/svg">
<path d="M4.35937 2.85156C4.39175 2.85965 4.40483 2.86739 4.40738 2.86895L4.4117 2.87327C4.41378 2.87793 4.41724 2.88685 4.4211 2.90163C4.43172 2.94236 4.44 3.00759 4.44 3.10402V10.7C4.44 10.796 4.43182 10.864 4.42046 10.9094C4.41653 10.9251 4.41267 10.9363 4.40958 10.944C4.40075 10.947 4.38762 10.9509 4.36901 10.9548C4.31959 10.9651 4.24804 10.972 4.15 10.972H3.178C3.07996 10.972 3.00841 10.9651 2.95899 10.9548C2.94739 10.9524 2.93792 10.9499 2.9303 10.9477C2.92808 10.9401 2.92566 10.9306 2.92325 10.919C2.91295 10.8696 2.906 10.7981 2.906 10.7V3.10402C2.906 3.00555 2.91302 2.93658 2.92279 2.89163C2.92548 2.8793 2.92802 2.87034 2.93005 2.86415C2.93756 2.86083 2.94985 2.85625 2.96863 2.85156C3.01406 2.8402 3.08207 2.83202 3.178 2.83202H4.15C4.24593 2.83202 4.31394 2.8402 4.35937 2.85156ZM9.30967 5.04602H9.55967V4.79602V3.10402C9.55967 3.00759 9.56795 2.94236 9.57858 2.90163C9.58243 2.88684 9.58589 2.87793 9.58798 2.87327L9.59229 2.86895C9.59484 2.86739 9.60792 2.85965 9.64031 2.85156C9.68573 2.8402 9.75374 2.83202 9.84967 2.83202H10.5517C10.6476 2.83202 10.7156 2.8402 10.761 2.85156C10.7934 2.85965 10.8065 2.86738 10.809 2.86895L10.8134 2.87327C10.8155 2.87793 10.8189 2.88685 10.8228 2.90163C10.8334 2.94236 10.8417 3.00759 10.8417 3.10402V5.66002C10.8417 5.75595 10.8335 5.82396 10.8221 5.86939C10.8182 5.88514 10.8143 5.89633 10.8112 5.90395C10.8024 5.90702 10.7893 5.9109 10.7707 5.91478C10.7213 5.92507 10.6497 5.93202 10.5517 5.93202H9.20167H8.95167V6.18202V7.47802V7.72802H9.20167H10.5517C10.6476 7.72802 10.7156 7.7362 10.761 7.74756C10.7934 7.75565 10.8065 7.76338 10.809 7.76495L10.8134 7.76927C10.8155 7.77393 10.8189 7.78284 10.8228 7.79763C10.8334 7.83836 10.8417 7.90359 10.8417 8.00002V10.7C10.8417 10.796 10.8335 10.864 10.8221 10.9094C10.8182 10.9251 10.8143 10.9363 10.8112 10.944C10.8024 10.947 10.7893 10.9509 10.7707 10.9548C10.7213 10.9651 10.6497 10.972 10.5517 10.972H9.84967C9.75163 10.972 9.68008 10.9651 9.63066 10.9548C9.61205 10.9509 9.59892 10.947 9.5901 10.944C9.587 10.9363 9.58315 10.9251 9.57921 10.9094C9.56785 10.864 9.55967 10.796 9.55967 10.7V9.02602V8.77602H9.30967H7.68967H7.43967V9.02602V10.952C7.43967 11.5222 7.59099 11.9948 7.93634 12.3216C8.27911 12.6459 8.77048 12.786 9.36367 12.786H11.0197C11.6183 12.786 12.1137 12.6463 12.4595 12.3225C12.8084 11.9959 12.9617 11.5229 12.9617 10.952V7.85602C12.9617 7.53053 12.8955 7.24124 12.7375 7.01209C12.6838 6.93431 12.6217 6.86644 12.5519 6.80808C12.6238 6.74522 12.6874 6.67178 12.7417 6.58755C12.8969 6.34714 12.9617 6.04214 12.9617 5.69602V2.85202C12.9617 2.28111 12.8084 1.80815 12.4595 1.48152C12.1137 1.15779 11.6183 1.01802 11.0197 1.01802H9.36367C8.77048 1.01802 8.27911 1.15809 7.93634 1.48243C7.59099 1.80922 7.43967 2.28185 7.43967 2.85202V4.79602V5.04602H7.68967H9.30967ZM6.578 10.952V2.85202C6.578 2.28185 6.42668 1.80922 6.08133 1.48243C5.73856 1.15809 5.2472 1.01802 4.654 1.01802H2.692C2.09342 1.01802 1.59794 1.15779 1.25214 1.48152C0.903242 1.80815 0.75 2.28111 0.75 2.85202V10.952C0.75 11.5229 0.903242 11.9959 1.25214 12.3225C1.59794 12.6463 2.09342 12.786 2.692 12.786H4.654C5.2472 12.786 5.73856 12.6459 6.08133 12.3216C6.42668 11.9948 6.578 11.5222 6.578 10.952Z" stroke="#DCDCDC" stroke-width="0.5"/>
</svg>
