<svg width="15" height="13" viewBox="0 0 15 13" fill="none" xmlns="http://www.w3.org/2000/svg">
<path d="M4.35937 2.11956C4.39175 2.12766 4.40483 2.13539 4.40738 2.13696L4.4117 2.14127C4.41378 2.14594 4.41724 2.15485 4.4211 2.16963C4.43172 2.21037 4.44 2.2756 4.44 2.37203V9.96803C4.44 10.064 4.43182 10.132 4.42046 10.1774C4.41653 10.1931 4.41267 10.2043 4.40958 10.212C4.40075 10.215 4.38762 10.2189 4.36901 10.2228C4.31959 10.2331 4.24804 10.24 4.15 10.24H3.178C3.07996 10.24 3.00841 10.2331 2.95899 10.2228C2.94739 10.2204 2.93792 10.2179 2.9303 10.2157C2.92808 10.2081 2.92566 10.1986 2.92325 10.187C2.91295 10.1376 2.906 10.0661 2.906 9.96803V2.37203C2.906 2.27355 2.91302 2.20459 2.92279 2.15963C2.92548 2.1473 2.92802 2.13835 2.93005 2.13215C2.93756 2.12883 2.94985 2.12426 2.96863 2.11956C3.01406 2.10821 3.08207 2.10003 3.178 2.10003H4.15C4.24593 2.10003 4.31394 2.10821 4.35937 2.11956ZM13.9517 8.24003V7.99003H13.7017H12.9437V6.08003V5.83003H12.6937H11.1277H10.8777V6.08003V7.99003H9.20327L12.3653 0.634765L12.5153 0.286026H12.1357H10.5157H10.3498L10.2853 0.438915L7.0453 8.12492L7.02567 8.17149V8.22203V9.57203V9.82203H7.27567H10.8777V11.804V12.054H11.1277H12.6937H12.9437V11.804V9.82203H13.7017H13.9517V9.57203V8.24003ZM6.578 10.22V2.12003C6.578 1.54985 6.42668 1.07722 6.08133 0.750435C5.73856 0.426099 5.2472 0.286026 4.654 0.286026H2.692C2.09342 0.286026 1.59794 0.425794 1.25214 0.74952C0.903242 1.07615 0.75 1.54911 0.75 2.12003V10.22C0.75 10.7909 0.903242 11.2639 1.25214 11.5905C1.59794 11.9143 2.09342 12.054 2.692 12.054H4.654C5.2472 12.054 5.73856 11.914 6.08133 11.5896C6.42668 11.2628 6.578 10.7902 6.578 10.22Z" stroke="#DCDCDC" stroke-width="0.5"/>
</svg>
