<svg width="266" height="62" viewBox="0 0 266 62" fill="none" xmlns="http://www.w3.org/2000/svg">
<g opacity="0.2">
<mask id="path-1-outside-1" maskUnits="userSpaceOnUse" x="0" y="0" width="266" height="62" fill="black">
<rect fill="white" width="266" height="62"/>
<path d="M26.92 61.096L24.52 47.176H11.848L9.64 61.096H1L11.656 1H24.232L35.656 61.096H26.92ZM12.904 40.168H23.368L17.896 8.488L12.904 40.168Z"/>
<path d="M62.8975 24.328V10.6C62.8975 9.448 62.7055 8.712 62.3215 8.392C61.9375 8.008 61.1695 7.81601 60.0175 7.81601H50.4175V27.112H60.0175C61.1695 27.112 61.9375 26.952 62.3215 26.632C62.7055 26.248 62.8975 25.48 62.8975 24.328ZM62.8975 51.496V36.712C62.8975 35.56 62.7055 34.824 62.3215 34.504C61.9375 34.12 61.1695 33.928 60.0175 33.928H50.4175V54.28H60.0175C61.1695 54.28 61.9375 54.12 62.3215 53.8C62.7055 53.416 62.8975 52.648 62.8975 51.496ZM41.7775 1H62.6095C68.6255 1 71.6335 3.816 71.6335 9.448V24.712C71.6335 28.104 70.3535 30.088 67.7935 30.664C70.3535 31.304 71.6335 33.16 71.6335 36.232V52.648C71.6335 58.28 68.6255 61.096 62.6095 61.096H41.7775V1Z"/>
<path d="M89.6028 1H100.259C106.211 1 109.187 3.816 109.187 9.448V52.648C109.187 58.28 106.211 61.096 100.259 61.096H89.6028C83.5868 61.096 80.5788 58.28 80.5788 52.648V9.448C80.5788 3.816 83.5868 1 89.6028 1ZM100.547 51.304V10.792C100.547 9.64 100.355 8.904 99.9707 8.584C99.5867 8.2 98.8187 8.008 97.6667 8.008H92.0987C90.9467 8.008 90.1787 8.2 89.7947 8.584C89.4747 8.904 89.3148 9.64 89.3148 10.792V51.304C89.3148 52.456 89.4747 53.224 89.7947 53.608C90.1787 53.928 90.9467 54.088 92.0987 54.088H97.6667C98.8187 54.088 99.5867 53.928 99.9707 53.608C100.355 53.224 100.547 52.456 100.547 51.304Z"/>
<path d="M138.426 1H147.162V52.648C147.162 58.28 144.154 61.096 138.138 61.096H127.482C121.466 61.096 118.458 58.28 118.458 52.648V1H127.194V51.304C127.194 52.456 127.386 53.224 127.77 53.608C128.154 53.928 128.922 54.088 130.074 54.088H135.546C136.762 54.088 137.53 53.928 137.85 53.608C138.234 53.224 138.426 52.456 138.426 51.304V1Z"/>
<path d="M181.191 1V8.008H171.111V61.096H162.471V8.008H152.391V1H181.191Z"/>
<path d="M220.176 1H228.912V52.648C228.912 58.28 225.904 61.096 219.888 61.096H209.232C203.216 61.096 200.208 58.28 200.208 52.648V1H208.944V51.304C208.944 52.456 209.136 53.224 209.52 53.608C209.904 53.928 210.672 54.088 211.824 54.088H217.296C218.512 54.088 219.28 53.928 219.6 53.608C219.984 53.224 220.176 52.456 220.176 51.304V1Z"/>
<path d="M255.933 51.304V36.616C255.933 35.464 255.741 34.728 255.357 34.408C255.036 34.024 254.301 33.832 253.149 33.832H246.045C240.221 33.832 237.309 30.984 237.309 25.288V9.448C237.309 3.816 240.285 1 246.237 1H255.645C261.597 1 264.572 3.816 264.572 9.448V18.28H255.837V10.792C255.837 9.64 255.645 8.904 255.261 8.584C254.877 8.2 254.109 8.008 252.957 8.008H248.925C247.773 8.008 247.005 8.2 246.621 8.584C246.237 8.904 246.045 9.64 246.045 10.792V24.136C246.045 25.288 246.237 26.056 246.621 26.44C247.005 26.76 247.773 26.92 248.925 26.92H255.933C261.82 26.92 264.764 29.736 264.764 35.368V52.648C264.764 58.28 261.757 61.096 255.741 61.096H246.429C240.477 61.096 237.501 58.28 237.501 52.648V43.816H246.237V51.304C246.237 52.456 246.429 53.224 246.813 53.608C247.197 53.928 247.965 54.088 249.117 54.088H253.149C254.301 54.088 255.036 53.928 255.357 53.608C255.741 53.224 255.933 52.456 255.933 51.304Z"/>
</mask>
<path d="M26.92 61.096L24.52 47.176H11.848L9.64 61.096H1L11.656 1H24.232L35.656 61.096H26.92ZM12.904 40.168H23.368L17.896 8.488L12.904 40.168Z" stroke="white" mask="url(#path-1-outside-1)"/>
<path d="M62.8975 24.328V10.6C62.8975 9.448 62.7055 8.712 62.3215 8.392C61.9375 8.008 61.1695 7.81601 60.0175 7.81601H50.4175V27.112H60.0175C61.1695 27.112 61.9375 26.952 62.3215 26.632C62.7055 26.248 62.8975 25.48 62.8975 24.328ZM62.8975 51.496V36.712C62.8975 35.56 62.7055 34.824 62.3215 34.504C61.9375 34.12 61.1695 33.928 60.0175 33.928H50.4175V54.28H60.0175C61.1695 54.28 61.9375 54.12 62.3215 53.8C62.7055 53.416 62.8975 52.648 62.8975 51.496ZM41.7775 1H62.6095C68.6255 1 71.6335 3.816 71.6335 9.448V24.712C71.6335 28.104 70.3535 30.088 67.7935 30.664C70.3535 31.304 71.6335 33.16 71.6335 36.232V52.648C71.6335 58.28 68.6255 61.096 62.6095 61.096H41.7775V1Z" stroke="white" mask="url(#path-1-outside-1)"/>
<path d="M89.6028 1H100.259C106.211 1 109.187 3.816 109.187 9.448V52.648C109.187 58.28 106.211 61.096 100.259 61.096H89.6028C83.5868 61.096 80.5788 58.28 80.5788 52.648V9.448C80.5788 3.816 83.5868 1 89.6028 1ZM100.547 51.304V10.792C100.547 9.64 100.355 8.904 99.9707 8.584C99.5867 8.2 98.8187 8.008 97.6667 8.008H92.0987C90.9467 8.008 90.1787 8.2 89.7947 8.584C89.4747 8.904 89.3148 9.64 89.3148 10.792V51.304C89.3148 52.456 89.4747 53.224 89.7947 53.608C90.1787 53.928 90.9467 54.088 92.0987 54.088H97.6667C98.8187 54.088 99.5867 53.928 99.9707 53.608C100.355 53.224 100.547 52.456 100.547 51.304Z" stroke="white" mask="url(#path-1-outside-1)"/>
<path d="M138.426 1H147.162V52.648C147.162 58.28 144.154 61.096 138.138 61.096H127.482C121.466 61.096 118.458 58.28 118.458 52.648V1H127.194V51.304C127.194 52.456 127.386 53.224 127.77 53.608C128.154 53.928 128.922 54.088 130.074 54.088H135.546C136.762 54.088 137.53 53.928 137.85 53.608C138.234 53.224 138.426 52.456 138.426 51.304V1Z" stroke="white" mask="url(#path-1-outside-1)"/>
<path d="M181.191 1V8.008H171.111V61.096H162.471V8.008H152.391V1H181.191Z" stroke="white" mask="url(#path-1-outside-1)"/>
<path d="M220.176 1H228.912V52.648C228.912 58.28 225.904 61.096 219.888 61.096H209.232C203.216 61.096 200.208 58.28 200.208 52.648V1H208.944V51.304C208.944 52.456 209.136 53.224 209.52 53.608C209.904 53.928 210.672 54.088 211.824 54.088H217.296C218.512 54.088 219.28 53.928 219.6 53.608C219.984 53.224 220.176 52.456 220.176 51.304V1Z" stroke="white" mask="url(#path-1-outside-1)"/>
<path d="M255.933 51.304V36.616C255.933 35.464 255.741 34.728 255.357 34.408C255.036 34.024 254.301 33.832 253.149 33.832H246.045C240.221 33.832 237.309 30.984 237.309 25.288V9.448C237.309 3.816 240.285 1 246.237 1H255.645C261.597 1 264.572 3.816 264.572 9.448V18.28H255.837V10.792C255.837 9.64 255.645 8.904 255.261 8.584C254.877 8.2 254.109 8.008 252.957 8.008H248.925C247.773 8.008 247.005 8.2 246.621 8.584C246.237 8.904 246.045 9.64 246.045 10.792V24.136C246.045 25.288 246.237 26.056 246.621 26.44C247.005 26.76 247.773 26.92 248.925 26.92H255.933C261.82 26.92 264.764 29.736 264.764 35.368V52.648C264.764 58.28 261.757 61.096 255.741 61.096H246.429C240.477 61.096 237.501 58.28 237.501 52.648V43.816H246.237V51.304C246.237 52.456 246.429 53.224 246.813 53.608C247.197 53.928 247.965 54.088 249.117 54.088H253.149C254.301 54.088 255.036 53.928 255.357 53.608C255.741 53.224 255.933 52.456 255.933 51.304Z" stroke="white" mask="url(#path-1-outside-1)"/>
</g>
</svg>
