<svg width="260" height="47" viewBox="0 0 260 47" fill="none" xmlns="http://www.w3.org/2000/svg">
<mask id="path-1-outside-1" maskUnits="userSpaceOnUse" x="0" y="0" width="260" height="47" fill="black">
<rect fill="white" width="260" height="47"/>
<path d="M17.92 18.496V8.992C17.92 8.224 17.776 7.72 17.488 7.48C17.2 7.192 16.648 7.048 15.832 7.048H9.28V20.44H15.832C16.648 20.44 17.2 20.32 17.488 20.08C17.776 19.792 17.92 19.264 17.92 18.496ZM17.92 38.44V28.432C17.92 27.664 17.776 27.16 17.488 26.92C17.2 26.632 16.648 26.488 15.832 26.488H9.28V40.384H15.832C16.648 40.384 17.2 40.264 17.488 40.024C17.776 39.736 17.92 39.208 17.92 38.44ZM1 1H18.28C23.512 1 26.128 3.376 26.128 8.128V17.92C26.128 20.944 25.12 22.792 23.104 23.464C25.12 24.136 26.128 25.864 26.128 28.648V39.304C26.128 44.056 23.512 46.432 18.28 46.432H1V1Z"/>
<path d="M40.9909 28.72V46.432H32.7109V1H49.4149C54.6469 1 57.2629 3.376 57.2629 8.128V21.592C57.2629 25.528 55.5109 27.832 52.0069 28.504L59.5669 46.432H50.6389L43.7269 28.72H40.9909ZM40.9909 7.336V22.6H46.9669C47.7349 22.6 48.2629 22.48 48.5509 22.24C48.8389 21.952 48.9829 21.424 48.9829 20.656V9.28C48.9829 8.512 48.8389 8.008 48.5509 7.768C48.2629 7.48 47.7349 7.336 46.9669 7.336H40.9909Z"/>
<path d="M72.0004 40.096H85.8244V46.432H63.6484V1H85.2484V7.336H72.0004V19.936H83.1604V26.344H72.0004V40.096Z"/>
<path d="M109.226 46.432L107.498 37H97.5621L95.9781 46.432H87.6981L96.8421 1H108.002L117.578 46.432H109.226ZM98.6421 30.736H106.346L102.386 8.992L98.6421 30.736Z"/>
<path d="M148.226 1L138.866 23.608L148.154 46.432H139.226L130.226 23.608L139.298 1H148.226ZM121.586 46.432V1H129.866V46.432H121.586Z"/>
<path d="M174.274 7.336H160.594V21.16H171.754V27.208H160.594V46.432H152.242V1H174.274V7.336Z"/>
<path d="M197.046 46.432L195.318 37H185.382L183.798 46.432H175.518L184.662 1H195.822L205.398 46.432H197.046ZM186.462 30.736H194.166L190.206 8.992L186.462 30.736Z"/>
<path d="M223.806 38.152V28.432C223.806 27.664 223.662 27.16 223.374 26.92C223.086 26.632 222.558 26.488 221.79 26.488H215.958C211.014 26.488 208.542 24.088 208.542 19.288V8.128C208.542 3.376 211.134 1 216.318 1H224.238C229.422 1 232.014 3.376 232.014 8.128V14.464H223.662V9.28C223.662 8.512 223.518 8.008 223.23 7.768C222.942 7.48 222.414 7.336 221.646 7.336H218.91C218.094 7.336 217.542 7.48 217.254 7.768C216.966 8.008 216.822 8.512 216.822 9.28V18.424C216.822 19.192 216.966 19.72 217.254 20.008C217.542 20.248 218.094 20.368 218.91 20.368H224.598C229.638 20.368 232.158 22.72 232.158 27.424V39.304C232.158 44.056 229.542 46.432 224.31 46.432H216.534C211.302 46.432 208.686 44.056 208.686 39.304V33.04H216.966V38.152C216.966 38.92 217.11 39.448 217.398 39.736C217.686 39.976 218.238 40.096 219.054 40.096H221.79C222.558 40.096 223.086 39.976 223.374 39.736C223.662 39.448 223.806 38.92 223.806 38.152Z"/>
<path d="M259.26 1V7.336H251.268V46.432H242.988V7.336H235.068V1H259.26Z"/>
</mask>
<path d="M17.92 18.496V8.992C17.92 8.224 17.776 7.72 17.488 7.48C17.2 7.192 16.648 7.048 15.832 7.048H9.28V20.44H15.832C16.648 20.44 17.2 20.32 17.488 20.08C17.776 19.792 17.92 19.264 17.92 18.496ZM17.92 38.44V28.432C17.92 27.664 17.776 27.16 17.488 26.92C17.2 26.632 16.648 26.488 15.832 26.488H9.28V40.384H15.832C16.648 40.384 17.2 40.264 17.488 40.024C17.776 39.736 17.92 39.208 17.92 38.44ZM1 1H18.28C23.512 1 26.128 3.376 26.128 8.128V17.92C26.128 20.944 25.12 22.792 23.104 23.464C25.12 24.136 26.128 25.864 26.128 28.648V39.304C26.128 44.056 23.512 46.432 18.28 46.432H1V1Z" stroke="white" stroke-opacity="0.2" mask="url(#path-1-outside-1)"/>
<path d="M40.9909 28.72V46.432H32.7109V1H49.4149C54.6469 1 57.2629 3.376 57.2629 8.128V21.592C57.2629 25.528 55.5109 27.832 52.0069 28.504L59.5669 46.432H50.6389L43.7269 28.72H40.9909ZM40.9909 7.336V22.6H46.9669C47.7349 22.6 48.2629 22.48 48.5509 22.24C48.8389 21.952 48.9829 21.424 48.9829 20.656V9.28C48.9829 8.512 48.8389 8.008 48.5509 7.768C48.2629 7.48 47.7349 7.336 46.9669 7.336H40.9909Z" stroke="white" stroke-opacity="0.2" mask="url(#path-1-outside-1)"/>
<path d="M72.0004 40.096H85.8244V46.432H63.6484V1H85.2484V7.336H72.0004V19.936H83.1604V26.344H72.0004V40.096Z" stroke="white" stroke-opacity="0.2" mask="url(#path-1-outside-1)"/>
<path d="M109.226 46.432L107.498 37H97.5621L95.9781 46.432H87.6981L96.8421 1H108.002L117.578 46.432H109.226ZM98.6421 30.736H106.346L102.386 8.992L98.6421 30.736Z" stroke="white" stroke-opacity="0.2" mask="url(#path-1-outside-1)"/>
<path d="M148.226 1L138.866 23.608L148.154 46.432H139.226L130.226 23.608L139.298 1H148.226ZM121.586 46.432V1H129.866V46.432H121.586Z" stroke="white" stroke-opacity="0.2" mask="url(#path-1-outside-1)"/>
<path d="M174.274 7.336H160.594V21.16H171.754V27.208H160.594V46.432H152.242V1H174.274V7.336Z" stroke="white" stroke-opacity="0.2" mask="url(#path-1-outside-1)"/>
<path d="M197.046 46.432L195.318 37H185.382L183.798 46.432H175.518L184.662 1H195.822L205.398 46.432H197.046ZM186.462 30.736H194.166L190.206 8.992L186.462 30.736Z" stroke="white" stroke-opacity="0.2" mask="url(#path-1-outside-1)"/>
<path d="M223.806 38.152V28.432C223.806 27.664 223.662 27.16 223.374 26.92C223.086 26.632 222.558 26.488 221.79 26.488H215.958C211.014 26.488 208.542 24.088 208.542 19.288V8.128C208.542 3.376 211.134 1 216.318 1H224.238C229.422 1 232.014 3.376 232.014 8.128V14.464H223.662V9.28C223.662 8.512 223.518 8.008 223.23 7.768C222.942 7.48 222.414 7.336 221.646 7.336H218.91C218.094 7.336 217.542 7.48 217.254 7.768C216.966 8.008 216.822 8.512 216.822 9.28V18.424C216.822 19.192 216.966 19.72 217.254 20.008C217.542 20.248 218.094 20.368 218.91 20.368H224.598C229.638 20.368 232.158 22.72 232.158 27.424V39.304C232.158 44.056 229.542 46.432 224.31 46.432H216.534C211.302 46.432 208.686 44.056 208.686 39.304V33.04H216.966V38.152C216.966 38.92 217.11 39.448 217.398 39.736C217.686 39.976 218.238 40.096 219.054 40.096H221.79C222.558 40.096 223.086 39.976 223.374 39.736C223.662 39.448 223.806 38.92 223.806 38.152Z" stroke="white" stroke-opacity="0.2" mask="url(#path-1-outside-1)"/>
<path d="M259.26 1V7.336H251.268V46.432H242.988V7.336H235.068V1H259.26Z" stroke="white" stroke-opacity="0.2" mask="url(#path-1-outside-1)"/>
</svg>
