<svg width="116" height="47" viewBox="0 0 116 47" fill="none" xmlns="http://www.w3.org/2000/svg">
<path d="M23.4881 7.15399H23.7381V6.90399V0.567993V0.317993H23.4881H1.45605H1.20605V0.567993V46V46.25H1.45605H9.80805H10.0581V46V27.026H20.9681H21.2181V26.776V20.728V20.478H20.9681H10.0581V7.15399H23.4881ZM42.9155 7.51277L42.9235 7.52079L42.9323 7.52805C43.0252 7.60546 43.1124 7.74038 43.1759 7.96268C43.2393 8.1846 43.2743 8.47749 43.2743 8.84799V37.72C43.2743 38.4647 43.133 38.9023 42.9235 39.1191C42.7051 39.2945 42.259 39.414 41.5083 39.414H37.6923C37.295 39.414 36.9721 39.3846 36.7194 39.3297C36.4716 39.2758 36.3071 39.2008 36.205 39.119C35.9956 38.9023 35.8543 38.4647 35.8543 37.72V8.84799C35.8543 8.47749 35.8893 8.1846 35.9527 7.96268C36.0162 7.74038 36.1035 7.60546 36.1964 7.52805L36.2051 7.52079L36.2131 7.51277C36.425 7.30081 36.8849 7.15399 37.6923 7.15399H41.5083C42.2625 7.15399 42.7017 7.29891 42.9155 7.51277ZM73.7827 7.51277L73.7907 7.52079L73.7995 7.52805C73.8923 7.60546 73.9796 7.74038 74.0431 7.96268C74.1065 8.1846 74.1415 8.47749 74.1415 8.84799V37.72C74.1415 38.4647 74.0002 38.9023 73.7907 39.1191C73.5723 39.2945 73.1262 39.414 72.3755 39.414H68.5595C68.1622 39.414 67.8393 39.3846 67.5866 39.3297C67.3388 39.2758 67.1743 39.2007 67.0722 39.119C66.8628 38.9022 66.7215 38.4646 66.7215 37.72V8.84799C66.7215 8.47749 66.7565 8.1846 66.8199 7.96268C66.8834 7.74038 66.9706 7.60546 67.0635 7.52805L67.0722 7.52079L67.0803 7.51277C67.2922 7.30081 67.7521 7.15399 68.5595 7.15399H72.3755C73.1296 7.15399 73.5689 7.29891 73.7827 7.51277ZM89.7067 0.317993H89.4567V0.567993V46V46.25H89.7067H106.987C109.636 46.25 111.669 45.649 113.041 44.4031C114.417 43.1529 115.085 41.2931 115.085 38.872V7.696C115.085 5.27493 114.417 3.41506 113.041 2.16493C111.669 0.918948 109.636 0.317993 106.987 0.317993H89.7067ZM105.874 7.22477L105.882 7.23279L105.891 7.24005C105.984 7.31746 106.071 7.45238 106.134 7.67468C106.198 7.8966 106.233 8.18949 106.233 8.55999V38.008C106.233 38.7527 106.091 39.1903 105.882 39.4071C105.663 39.5825 105.217 39.702 104.467 39.702H98.2367V6.86599H104.467C105.221 6.86599 105.66 7.01091 105.874 7.22477ZM43.9563 0.317993H35.1723C32.5234 0.317993 30.4901 0.918948 29.1182 2.16493C27.7418 3.41506 27.0743 5.27493 27.0743 7.696V38.872C27.0743 41.2931 27.7418 43.1529 29.1182 44.4031C30.4901 45.649 32.5234 46.25 35.1723 46.25H43.9563C46.6052 46.25 48.6385 45.649 50.0104 44.4031C51.3868 43.1529 52.0543 41.2931 52.0543 38.872V7.696C52.0543 5.27493 51.3868 3.41506 50.0104 2.16493C48.6385 0.918948 46.6052 0.317993 43.9563 0.317993ZM74.8235 0.317993H66.0395C63.3906 0.317993 61.3572 0.918948 59.9854 2.16493C58.609 3.41506 57.9415 5.27493 57.9415 7.696V38.872C57.9415 41.2931 58.609 43.1529 59.9854 44.4031C61.3572 45.649 63.3906 46.25 66.0395 46.25H74.8235C77.4724 46.25 79.5057 45.649 80.8776 44.4031C82.254 43.1529 82.9215 41.2931 82.9215 38.872V7.696C82.9215 5.27493 82.254 3.41506 80.8776 2.16493C79.5057 0.918948 77.4724 0.317993 74.8235 0.317993Z" stroke="white" stroke-opacity="0.2" stroke-width="0.5"/>
</svg>
