<svg width="128" height="128" viewBox="0 0 128 128" fill="none" xmlns="http://www.w3.org/2000/svg">
<g clip-path="url(#clip0)">
<path d="M94.0754 127.999H21.081C13.9685 127.999 8.20251 122.233 8.20251 115.12C8.20251 114.419 8.77102 113.85 9.47227 113.85H105.684C106.385 113.85 106.954 114.419 106.954 115.12C106.954 122.233 101.188 127.999 94.0754 127.999Z" fill="#ECF1F7"/>
<path d="M106.955 115.119C106.955 118.675 105.513 121.895 103.181 124.226C100.852 126.557 97.6325 128 94.0745 128H83.8247C87.3802 128 90.6002 126.557 92.929 124.226C95.2602 121.895 96.7027 118.675 96.7027 115.119C96.7027 114.418 96.134 113.849 95.433 113.849H105.685C106.386 113.849 106.955 114.418 106.955 115.119Z" fill="#DCDEE0"/>
<path d="M95.1409 53.0094H102.185C111.872 53.0094 119.797 60.9346 119.797 70.6211C119.797 80.3077 111.872 88.2329 102.185 88.2329H95.1409H88.4739V78.3409H100.624C104.902 78.3409 108.37 74.8731 108.37 70.5951C108.37 66.3174 104.902 62.8494 100.624 62.8494H88.4739V53.0096L95.1409 53.0094Z" fill="white"/>
<path d="M119.798 70.6209C119.798 75.4639 117.817 79.8674 114.625 83.0597C111.432 86.2519 107.029 88.2329 102.186 88.2329H95.583C100.426 88.2329 104.829 86.2522 108.022 83.0597C111.214 79.8674 113.195 75.4639 113.195 70.6209C113.195 60.9349 105.269 53.0089 95.5827 53.0089H102.186C111.872 53.0089 119.798 60.9349 119.798 70.6209Z" fill="#DCDEE0"/>
<path d="M15.7345 38.9913L15.7862 68.6896C15.7862 68.7411 15.7882 68.7926 15.7922 68.8439C17.4758 90.4314 35.5265 107.424 57.5463 107.424C79.5666 107.424 97.6179 90.4304 99.3004 68.8419C99.3044 68.7919 99.3064 68.7416 99.3064 68.6914L99.4214 38.9951C99.4252 38.0046 98.6234 37.1996 97.6329 37.1996H17.5233C16.5343 37.1996 15.733 38.0023 15.7345 38.9913Z" fill="#ECF1F7"/>
<path d="M99.4227 38.9963L99.3059 68.6916C99.3059 68.7424 99.3034 68.7931 99.3009 68.8439C97.6172 90.4302 79.5659 107.425 57.5454 107.425C55.8108 107.425 54.0991 107.318 52.4206 107.115C72.0591 104.718 87.4997 88.7287 89.0489 68.8439C89.0539 68.7931 89.0539 68.7424 89.0567 68.6916L89.1709 38.9963C89.1734 38.0058 88.3734 37.2008 87.3832 37.2008H97.6329C98.6227 37.2008 99.4254 38.0058 99.4227 38.9963Z" fill="#DCDEE0"/>
<path d="M99.3872 38.6298V47.6528H89.1374L89.1704 38.9953C89.1729 38.0048 88.3729 37.1998 87.3827 37.1998H97.6325C98.496 37.2001 99.2197 37.8146 99.3872 38.6298Z" fill="#DCDEE0"/>
<path d="M98.1185 37.1996H17.0046C16.3033 37.1996 15.7348 37.7681 15.7348 38.4693V47.6516H31.9648V60.3929C31.9648 63.5946 34.5826 66.1904 37.8118 66.1904C41.0411 66.1904 43.6589 63.5949 43.6589 60.3929V47.6516H99.3882V38.4693C99.3882 37.7681 98.8197 37.1996 98.1185 37.1996Z" fill="#DF3F3F"/>
<path d="M99.3872 38.4698V47.6528H89.1374L89.1704 38.9953C89.1729 38.0048 88.3729 37.1998 87.3827 37.1998H98.1175C98.821 37.2001 99.3872 37.7688 99.3872 38.4698Z" fill="#A72A2A"/>
<path d="M45.8743 32.6786C45.4491 32.6786 45.0213 32.5371 44.6671 32.2461C43.8541 31.5786 43.7358 30.3786 44.4031 29.5653C44.9321 28.9208 45.4218 28.1316 45.4218 26.7353C45.4218 24.8305 44.5098 23.932 43.2473 22.6883C41.7726 21.2353 39.9371 19.4268 39.9371 15.9278C39.9371 12.431 41.7716 10.623 43.2458 9.17026L43.4176 9.00051C44.1653 8.26076 45.3713 8.26751 46.1111 9.01551C46.8508 9.76326 46.8441 10.9693 46.0961 11.709L45.9193 11.8833C44.6578 13.1265 43.7461 14.025 43.7461 15.9275C43.7461 17.8323 44.6581 18.7308 45.9206 19.9745C47.3953 21.4275 49.2308 23.236 49.2308 26.735C49.2308 28.7491 48.6323 30.4163 47.3473 31.9818C46.9711 32.4411 46.4248 32.6786 45.8743 32.6786Z" fill="#DF3F3F"/>
<path d="M58.8679 29.0533C58.5061 29.0533 58.1401 28.9503 57.8161 28.7353C56.9396 28.1536 56.7009 26.9715 57.2826 26.095C57.8429 25.2508 58.4159 24.1225 58.4159 22.1558C58.4159 19.497 57.3966 18.2555 56.1061 16.6835C54.6916 14.9605 52.9311 12.8163 52.9311 8.79426C52.9311 4.77501 54.6906 2.63125 56.1044 0.90875L56.2766 0.698749C56.9426 -0.115252 58.1426 -0.235752 58.9569 0.430249C59.7711 1.09625 59.8914 2.296 59.2254 3.1105L59.0489 3.32575C57.7591 4.89701 56.7404 6.13826 56.7404 8.79452C56.7404 11.4533 57.7596 12.6948 59.0501 14.2668C60.4646 15.9898 62.2251 18.134 62.2251 22.156C62.2251 24.463 61.6631 26.384 60.4561 28.2021C60.0896 28.7541 59.4846 29.0533 58.8679 29.0533Z" fill="#DF3F3F"/>
<path d="M71.8624 32.6786C71.4372 32.6786 71.0094 32.5371 70.6552 32.2461C69.8422 31.5786 69.7239 30.3786 70.3912 29.5653C70.9202 28.9208 71.4099 28.1316 71.4099 26.7353C71.4099 24.8305 70.4979 23.932 69.2354 22.6883C67.7607 21.2353 65.9252 19.4268 65.9252 15.9278C65.9252 12.431 67.7597 10.623 69.2339 9.17026L69.4057 9.00051C70.1534 8.26076 71.3594 8.26751 72.0992 9.01551C72.8389 9.76326 72.8322 10.9693 72.0842 11.709L71.9074 11.8833C70.6459 13.1265 69.7342 14.025 69.7342 15.9275C69.7342 17.8323 70.6462 18.7308 71.9087 19.9745C73.3834 21.4275 75.2189 23.236 75.2189 26.735C75.2189 28.7491 74.6204 30.4163 73.3354 31.9818C72.9594 32.4411 72.4132 32.6786 71.8624 32.6786Z" fill="#DF3F3F"/>
</g>
<defs>
<clipPath id="clip0">
<rect width="128" height="128" fill="white"/>
</clipPath>
</defs>
</svg>
