<svg width="867" height="167" viewBox="0 0 867 167" fill="none" xmlns="http://www.w3.org/2000/svg">
<path opacity="0.1" d="M82.754 157.384V157.134H82.504H34.37V1V0.75H34.12H1H0.75V1V182.728V182.978H1H82.504H82.754V182.728V157.384ZM186.141 157.384V157.134H185.891H130.845V102.626H175.236H175.486V102.376V76.744V76.494H175.236H130.845V26.594H183.587H183.837V26.344V1V0.75H183.587H97.1875H96.9375V1V182.728V182.978H97.1875H185.891H186.141V182.728V157.384ZM286.66 157.384V157.134H286.41H238.276V1V0.75H238.026H204.906H204.656V1V182.728V182.978H204.906H286.41H286.66V182.728V157.384ZM363.59 182.978H363.84V182.728V124.304L403.859 1.07722L403.966 0.75H403.622H369.926H369.731L369.683 0.939366L346.591 93.3102L322.071 0.935863L322.022 0.75H321.83H288.134H287.784L287.897 1.0807L330.22 125.169V182.728V182.978H330.47H363.59ZM503.009 1V0.75H502.759H405.991H405.741V1V26.344V26.594H405.991H437.421V182.728V182.978H437.671H470.791H471.041V182.728V26.594H502.759H503.009V26.344V1ZM595.471 111.202C602.375 109.822 607.59 106.84 611.089 102.239C614.636 97.5745 616.396 91.2752 616.396 83.368V29.512C616.396 19.9629 613.766 12.7571 608.466 7.94294C603.17 3.13296 595.25 0.75 584.754 0.75H517.938H517.688V1V182.728V182.978H517.938H551.058H551.308V182.728V112.13H561.831L589.417 182.819L589.479 182.978H589.65H625.362H625.738L625.592 182.631L595.471 111.202ZM581.121 28.2488L581.129 28.2568L581.138 28.2641C581.662 28.7015 582.074 29.3944 582.353 30.3727C582.633 31.3506 582.776 32.5975 582.776 34.12V79.624C582.776 82.6745 582.201 84.6953 581.129 85.7752C580.047 86.6698 578.018 87.15 574.962 87.15H551.308V26.594H574.962C578.02 26.594 580.043 27.1709 581.121 28.2488ZM716.034 182.773L716.071 182.978H716.28H749.688H749.996L749.932 182.676L711.628 0.948439L711.586 0.75H711.384H666.744H666.539L666.498 0.950672L629.922 182.679L629.862 182.978H630.168H663.288H663.499L663.534 182.769L669.835 145.25H709.159L716.034 182.773ZM835.991 0.75H835.741V1V118.068L797.925 0.923199L797.869 0.75H797.687H765.719H765.469V1V182.728V182.978H765.719H796.247H796.497V182.728V63.9316L834.889 182.805L834.945 182.978H835.127H866.231H866.481V182.728V1V0.75H866.231H835.991ZM704.46 119.694H674.24L688.926 34.4013L704.46 119.694Z" stroke="white" stroke-width="0.5"/>
</svg>
