<svg width="145" height="48" viewBox="0 0 145 48" fill="none" xmlns="http://www.w3.org/2000/svg">
<path d="M21.626 40.096V39.846H21.376H9.53V1V0.75H9.28H1H0.75V1V46.432V46.682H1H21.376H21.626V46.432V40.096ZM41.1749 0.75H40.9249V1V38.152C40.9249 38.8967 40.7836 39.3343 40.5741 39.551C40.472 39.6328 40.3076 39.7078 40.0598 39.7617C39.807 39.8167 39.4842 39.846 39.0869 39.846H35.2709C34.5202 39.846 34.0741 39.7265 33.8557 39.5511C33.6462 39.3343 33.5049 38.8967 33.5049 38.152V1V0.75H33.2549H24.9749H24.7249V1V39.304C24.7249 41.7251 25.3924 43.5849 26.7688 44.8351C28.1406 46.081 30.174 46.682 32.8229 46.682H41.6069C44.2558 46.682 46.2891 46.081 47.661 44.8351C49.0374 43.5849 49.7049 41.7251 49.7049 39.304V1V0.75H49.4549H41.1749ZM73.8336 0.75H73.5836V1V29.0758L64.4955 0.923199L64.4396 0.75H64.2576H56.2656H56.0156V1V46.432V46.682H56.2656H63.8976H64.1476V46.432V17.9235L73.3797 46.5088L73.4356 46.682H73.6176H81.3936H81.6436V46.432V1V0.75H81.3936H73.8336ZM112.158 16.298H112.408V16.048V8.128C112.408 5.70693 111.741 3.84707 110.365 2.59694C108.993 1.35096 106.959 0.75 104.31 0.75H95.8864C93.2375 0.75 91.2042 1.35096 89.8324 2.59694C88.4559 3.84707 87.7884 5.70693 87.7884 8.128V39.376C87.7884 41.7971 88.4559 43.6569 89.8324 44.9071C91.2042 46.153 93.2375 46.754 95.8864 46.754H104.31C106.959 46.754 108.993 46.153 110.365 44.9071C111.741 43.6569 112.408 41.7971 112.408 39.376V31.6V31.35H112.158H103.806H103.556V31.6V38.512C103.556 39.2567 103.415 39.6943 103.206 39.9111C102.987 40.0865 102.541 40.206 101.79 40.206H98.4064C97.6557 40.206 97.2096 40.0865 96.9912 39.9111C96.7817 39.6943 96.6404 39.2567 96.6404 38.512V8.992C96.6404 8.6215 96.6754 8.3286 96.7388 8.10668C96.8023 7.88438 96.8896 7.74947 96.9825 7.67206L96.9912 7.6648L96.9992 7.65678C97.2131 7.44292 97.6523 7.298 98.4064 7.298H101.79C102.545 7.298 102.984 7.44292 103.198 7.65678L103.206 7.6648L103.214 7.67206C103.307 7.74947 103.395 7.88438 103.458 8.10668C103.521 8.3286 103.556 8.6215 103.556 8.992V16.048V16.298H103.806H112.158ZM135.64 0.75H135.39V1V20.478H126.53V1V0.75H126.28H118H117.75V1V46.432V46.682H118H126.28H126.53V46.432V27.314H135.39V46.432V46.682H135.64H143.92H144.17V46.432V1V0.75H143.92H135.64Z" stroke="white" stroke-opacity="0.2" stroke-width="0.5"/>
</svg>
