<svg width="153" height="720" viewBox="0 0 153 720" fill="none" xmlns="http://www.w3.org/2000/svg">
<path fill-rule="evenodd" clip-rule="evenodd" d="M89.9401 677.087L89.8853 677.133C89.6092 677.364 89.3302 677.81 89.1252 678.599C88.9223 679.38 88.8116 680.423 88.8116 681.749L88.8116 698.551C88.8116 705.555 87.1068 710.954 83.559 714.598C80.008 718.245 74.742 720 67.9114 720L30.6188 720C23.8567 720 18.6438 718.203 15.1318 714.475C11.6275 710.754 9.94469 705.246 9.94468 698.096L9.94468 675.846C9.94468 668.697 11.6275 663.188 15.1318 659.468C18.6438 655.739 23.8567 653.942 30.6188 653.942L52.1971 653.942L52.1971 676.18L33.783 676.18C32.4633 676.18 31.4251 676.291 30.6474 676.495C29.8618 676.701 29.4177 676.981 29.1876 677.259L29.1648 677.286L29.1396 677.312C28.824 677.629 28.5353 678.16 28.329 678.989C28.1238 679.813 28.0134 680.879 28.0134 682.203L28.0134 691.739C28.0134 693.063 28.1238 694.129 28.329 694.954C28.5353 695.783 28.824 696.314 29.1396 696.631L29.1648 696.656L29.1876 696.684C29.4177 696.961 29.8618 697.241 30.6474 697.447C31.4251 697.651 32.4633 697.762 33.783 697.762L65.1992 697.762C66.5174 697.762 67.5785 697.651 68.3991 697.445C69.2026 697.243 69.7248 696.963 70.0431 696.656C70.2952 696.338 70.5323 695.807 70.7029 694.984C70.8765 694.147 70.9689 693.07 70.9689 691.739L70.9689 675.165C70.9689 668.089 72.6527 662.636 76.1589 658.954C79.6714 655.265 84.8832 653.488 91.6431 653.488L132.326 653.488C139.09 653.488 144.304 655.305 147.816 659.073C151.318 662.832 153 668.396 153 675.619L153 697.642C153 704.792 151.317 710.3 147.813 714.021C144.301 717.749 139.088 719.546 132.326 719.546L110.748 719.546L110.748 697.308L129.162 697.308C130.48 697.308 131.541 697.197 132.362 696.991C133.165 696.789 133.687 696.509 134.006 696.202C134.258 695.884 134.495 695.352 134.665 694.53C134.839 693.693 134.931 692.616 134.931 691.285L134.931 681.749C134.931 680.417 134.839 679.362 134.667 678.568C134.491 677.757 134.252 677.307 134.031 677.085C133.716 676.768 133.187 676.477 132.362 676.27C131.541 676.064 130.48 675.953 129.162 675.953L94.5813 675.953C93.2615 675.953 92.2233 676.064 91.4456 676.268C90.66 676.474 90.2159 676.754 89.9858 677.032L89.9401 677.087ZM134.586 696.734C133.682 697.642 131.874 698.096 129.162 698.096L111.532 698.096L111.532 718.758L132.326 718.758C145.585 718.758 152.215 711.719 152.215 697.642L152.215 675.619C152.215 661.391 145.585 654.277 132.326 654.277L91.6431 654.277C78.3835 654.277 71.7537 661.239 71.7537 675.165L71.7537 691.739C71.7537 694.464 71.377 696.28 70.6236 697.188C69.7196 698.096 67.9114 698.551 65.1992 698.551L33.783 698.551C31.0709 698.551 29.3381 698.096 28.5847 697.188C27.6806 696.28 27.2286 694.464 27.2286 691.739L27.2286 682.203C27.2286 679.479 27.6806 677.662 28.5847 676.754C29.3381 675.846 31.0709 675.392 33.783 675.392L51.4123 675.392L51.4123 654.731L30.6188 654.731C17.3592 654.731 10.7295 661.769 10.7295 675.846L10.7295 698.096C10.7295 712.173 17.3592 719.212 30.6188 719.212L67.9114 719.212C81.3217 719.212 88.0268 712.325 88.0268 698.551L88.0268 681.749C88.0268 679.025 88.4788 677.284 89.3829 676.527C90.1363 675.619 91.8691 675.165 94.5813 675.165L129.162 675.165C131.874 675.165 133.682 675.619 134.586 676.527C135.339 677.284 135.716 679.025 135.716 681.749L135.716 691.285C135.716 694.01 135.339 695.826 134.586 696.734ZM104.181 570.769L104.181 615.497L129.614 615.497C132.148 615.497 133.592 615.034 134.257 614.366C134.573 614.049 134.861 613.518 135.068 612.689C135.273 611.864 135.383 610.798 135.383 609.474L135.383 599.03C135.383 597.706 135.273 596.64 135.068 595.816C134.861 594.986 134.573 594.455 134.257 594.138C133.942 593.821 133.413 593.531 132.588 593.324C131.767 593.118 130.706 593.007 129.388 593.007L119.562 593.007L119.562 571.45L132.326 571.45C139.088 571.45 144.301 573.247 147.813 576.976C151.317 580.696 153 586.205 153 593.354L153 615.15C153 622.3 151.317 627.808 147.813 631.529C144.301 635.257 139.088 637.054 132.326 637.054L62.035 637.054C55.1999 637.054 49.9316 635.258 46.3815 631.532C42.8375 627.812 41.1348 622.302 41.1348 615.15L41.1348 592.9C41.1348 585.675 42.8365 580.109 46.3786 576.351C49.9283 572.585 55.1976 570.769 62.035 570.769L104.181 570.769ZM103.396 616.286L103.396 571.558L62.035 571.558C48.6247 571.558 41.9196 578.672 41.9196 592.9L41.9196 615.15C41.9196 629.227 48.6247 636.266 62.035 636.266L132.326 636.266C145.585 636.266 152.215 629.227 152.215 615.15L152.215 593.354C152.215 579.277 145.585 572.239 132.326 572.239L120.347 572.239L120.347 592.219L129.388 592.219C132.1 592.219 133.908 592.673 134.812 593.581C135.716 594.489 136.168 596.306 136.168 599.03L136.168 609.474C136.168 612.199 135.716 614.015 134.812 614.923C133.908 615.831 132.175 616.286 129.614 616.286L103.396 616.286ZM59.8526 593.71L59.8252 593.733C59.5491 593.964 59.2701 594.41 59.0651 595.199C58.8622 595.98 58.7515 597.023 58.7515 598.349L58.7515 609.474C58.7515 610.798 58.8619 611.864 59.0671 612.689C59.2734 613.518 59.5622 614.049 59.8777 614.366C60.5431 615.034 61.9867 615.497 64.5212 615.497L87.6941 615.497L87.6941 592.553L64.5212 592.553C61.9867 592.553 60.5431 593.016 59.8777 593.684L59.8526 593.71ZM88.4788 591.765L88.4788 616.286L64.5212 616.286C61.9597 616.286 60.2269 615.831 59.3228 614.923C58.4188 614.015 57.9667 612.199 57.9667 609.474L57.9667 598.349C57.9667 595.624 58.4188 593.884 59.3228 593.127C60.2269 592.219 61.9597 591.765 64.5212 591.765L88.4788 591.765ZM153 490.088L153 512.099L64.9732 512.099C63.6534 512.099 62.6152 512.21 61.8376 512.414C61.0519 512.62 60.6078 512.9 60.3777 513.178L60.3549 513.205L60.3298 513.23C60.0142 513.547 59.7255 514.078 59.5191 514.908C59.314 515.732 59.2035 516.798 59.2035 518.122L59.2035 526.069C59.2035 528.687 59.783 530.397 60.7632 531.396C61.7534 532.252 63.5405 532.773 66.3293 532.773L153 532.773L153 554.784L41.1348 554.784L41.1348 532.773L47.2237 532.773C45.6839 531.789 44.4247 530.528 43.459 528.986C41.8888 526.478 41.1348 523.292 41.1348 519.484L41.1348 511.538C41.1348 504.534 42.8396 499.135 46.3874 495.491C49.9384 491.843 55.2044 490.088 62.035 490.088L153 490.088ZM48.8206 532.773C49.4195 533.072 50.0574 533.335 50.7342 533.561L41.9196 533.561L41.9196 553.995L152.215 553.995L152.215 533.561L66.3293 533.561C63.4664 533.561 61.4323 533.031 60.2269 531.972C59.0215 530.761 58.4188 528.793 58.4188 526.069L58.4188 518.122C58.4188 515.398 58.8708 513.581 59.7748 512.673C60.5282 511.765 62.261 511.311 64.9732 511.311L152.215 511.311L152.215 490.877L62.035 490.877C48.6247 490.877 41.9196 497.764 41.9196 511.538L41.9196 519.484C41.9196 526.047 44.22 530.476 48.8206 532.773ZM107.14 435.956L107.115 435.982C106.799 436.299 106.511 436.83 106.304 437.659C106.099 438.483 105.989 439.549 105.989 440.873L105.989 452.453C105.989 459.602 104.306 465.111 100.802 468.831C97.2897 472.559 92.0768 474.356 85.3146 474.356L62.035 474.356C55.1999 474.356 49.9316 472.561 46.3815 468.834C42.8375 465.114 41.1348 459.604 41.1348 452.453L41.1348 435.878C41.1348 428.653 42.8365 423.088 46.3786 419.33C49.9283 415.564 55.1976 413.748 62.035 413.748L73.4425 413.748L73.4425 435.305L64.0691 435.305C62.7494 435.305 61.7112 435.416 60.9335 435.62C60.1479 435.825 59.7038 436.106 59.4737 436.383L59.4509 436.411L59.4257 436.436C59.1101 436.753 58.8214 437.284 58.6151 438.113C58.4099 438.937 58.2995 440.003 58.2995 441.328L58.2995 446.777C58.2995 448.101 58.4099 449.167 58.6151 449.991C58.8214 450.82 59.1101 451.351 59.4257 451.668L59.4509 451.694L59.4737 451.721C59.7038 451.998 60.1479 452.279 60.9335 452.485C61.7112 452.688 62.7494 452.8 64.0691 452.8L83.0545 452.8C84.3727 452.8 85.4337 452.689 86.2544 452.483C87.0578 452.281 87.58 452.001 87.8983 451.693C88.1504 451.376 88.3875 450.844 88.5581 450.022C88.7317 449.185 88.8241 448.107 88.8241 446.777L88.8241 434.97C88.8241 427.892 90.5278 422.438 94.0737 418.756C97.6243 415.069 102.891 413.294 109.724 413.294L132.326 413.294C139.088 413.294 144.301 415.091 147.813 418.819C151.317 422.539 153 428.048 153 435.197L153 451.999C153 459.148 151.317 464.657 147.813 468.377C144.301 472.105 139.088 473.902 132.326 473.902L120.692 473.902L120.692 452.346L130.066 452.346C131.384 452.346 132.445 452.235 133.266 452.028C134.069 451.827 134.591 451.547 134.909 451.239C135.162 450.922 135.399 450.39 135.569 449.567C135.743 448.73 135.835 447.653 135.835 446.323L135.835 440.873C135.835 439.543 135.743 438.466 135.569 437.629C135.399 436.806 135.162 436.274 134.91 435.957C134.591 435.649 134.069 435.369 133.266 435.167C132.445 434.961 131.384 434.85 130.066 434.85L111.758 434.85C110.439 434.85 109.4 434.962 108.623 435.165C107.837 435.371 107.393 435.652 107.163 435.929L107.14 435.956ZM135.49 435.424C136.243 436.333 136.62 438.149 136.62 440.873L136.62 446.323C136.62 449.047 136.243 450.863 135.49 451.772C134.586 452.68 132.778 453.134 130.066 453.134L121.477 453.134L121.477 473.114L132.326 473.114C145.585 473.114 152.215 466.075 152.215 451.999L152.215 435.197C152.215 421.12 145.585 414.082 132.326 414.082L109.724 414.082C96.3141 414.082 89.6089 421.045 89.6089 434.97L89.6089 446.777C89.6089 449.501 89.2322 451.318 88.4788 452.226C87.5748 453.134 85.7666 453.588 83.0545 453.588L64.0691 453.588C61.357 453.588 59.6242 453.134 58.8708 452.226C57.9667 451.318 57.5147 449.501 57.5147 446.777L57.5147 441.328C57.5147 438.603 57.9667 436.787 58.8708 435.878C59.6242 434.97 61.357 434.516 64.0691 434.516L72.6577 434.516L72.6577 414.536L62.035 414.536C48.6247 414.536 41.9196 421.65 41.9196 435.878L41.9196 452.453C41.9196 466.53 48.6247 473.568 62.035 473.568L85.3146 473.568C98.5742 473.568 105.204 466.53 105.204 452.453L105.204 440.873C105.204 438.149 105.656 436.333 106.56 435.424C107.313 434.516 109.046 434.062 111.758 434.062L130.066 434.062C132.778 434.062 134.586 434.516 135.49 435.424ZM41.1348 356.037L41.1348 334.026L153 334.026L153 356.037L146.911 356.037C148.451 357.021 149.71 358.282 150.676 359.824C152.246 362.332 153 365.518 153 369.326L153 377.499C153 384.428 151.314 389.77 147.804 393.376C144.291 396.986 139.081 398.722 132.326 398.722L62.035 398.722C55.2067 398.722 49.9418 396.987 46.3904 393.379C42.8407 389.773 41.1348 384.43 41.1348 377.499L41.1348 369.326C41.1348 365.518 41.8887 362.332 43.459 359.824C44.4247 358.282 45.6839 357.021 47.2237 356.037L41.1348 356.037ZM50.7342 355.249C50.0574 355.476 49.4195 355.738 48.8206 356.037C44.22 358.334 41.9196 362.763 41.9196 369.326L41.9196 377.499C41.9196 391.122 48.6247 397.933 62.035 397.933L132.326 397.933C145.585 397.933 152.215 391.122 152.215 377.499L152.215 369.326C152.215 362.763 149.915 358.334 145.314 356.037C144.715 355.738 144.077 355.476 143.401 355.249L152.215 355.249L152.215 334.815L41.9196 334.815L41.9196 355.249L50.7342 355.249ZM133.372 357.641L133.353 357.623C132.368 356.633 130.594 356.037 127.806 356.037L66.3293 356.037C63.5413 356.037 61.767 356.633 60.7818 357.623L60.7633 357.641L60.7437 357.659C59.796 358.492 59.2035 360.093 59.2035 362.741L59.2035 370.688C59.2035 372.012 59.314 373.078 59.5191 373.902C59.7255 374.732 60.0142 375.263 60.3298 375.58L60.3549 375.605L60.3777 375.632C60.6078 375.91 61.0519 376.19 61.8376 376.396C62.6152 376.6 63.6534 376.711 64.9732 376.711L129.162 376.711C130.48 376.711 131.541 376.6 132.362 376.394C133.165 376.192 133.687 375.912 134.005 375.605C134.258 375.287 134.495 374.755 134.665 373.933C134.839 373.096 134.931 372.019 134.931 370.688L134.931 362.741C134.931 360.093 134.339 358.492 133.391 357.659L133.372 357.641ZM134.586 376.137C133.682 377.045 131.874 377.499 129.162 377.499L64.9732 377.499C62.261 377.499 60.5282 377.045 59.7748 376.137C58.8708 375.229 58.4188 373.413 58.4188 370.688L58.4188 362.741C58.4188 360.017 59.0215 358.125 60.2269 357.065C61.4323 355.854 63.4664 355.249 66.3293 355.249L127.806 355.249C130.668 355.249 132.703 355.854 133.908 357.065C135.113 358.125 135.716 360.017 135.716 362.741L135.716 370.688C135.716 373.413 135.339 375.229 134.586 376.137ZM59.2035 276.504L59.2035 291.716L128.258 291.716C129.582 291.716 130.655 291.623 131.488 291.449C132.282 291.283 132.805 291.053 133.124 290.808C133.367 290.488 133.596 289.963 133.761 289.165C133.935 288.328 134.027 287.251 134.027 285.92L134.027 276.504L153 276.504L153 291.823C153 299.047 151.318 304.611 147.816 308.369C144.304 312.137 139.09 313.954 132.326 313.954L59.2035 313.954L59.2035 324.398L41.1348 324.398L41.1348 313.954L22.3755 313.954L22.3755 291.716L41.1348 291.716L41.1348 276.504L59.2035 276.504ZM41.9196 292.505L23.1603 292.505L23.1603 313.166L41.9196 313.166L41.9196 323.61L58.4187 323.61L58.4187 313.166L132.326 313.166C145.585 313.166 152.215 306.052 152.215 291.823L152.215 277.292L134.812 277.292L134.812 285.92C134.812 288.645 134.435 290.461 133.682 291.369C132.778 292.126 130.97 292.505 128.258 292.505L58.4187 292.505L58.4187 277.292L41.9196 277.292L41.9196 292.505ZM21.6849 266.331L-1.98305e-05 266.331L-2.08323e-05 243.412L21.6849 243.412L21.6849 266.331ZM153 243.866L153 265.877L41.1348 265.877L41.1348 243.866L153 243.866ZM153 76.7946L153 98.8054L64.9732 98.8054C63.6534 98.8054 62.6152 98.9167 61.8375 99.1204C61.0519 99.3263 60.6078 99.6066 60.3777 99.884L60.3549 99.9114L60.3297 99.9367C60.0142 100.254 59.7255 100.785 59.5191 101.614C59.3139 102.438 59.2035 103.504 59.2035 104.828L59.2035 112.775C59.2035 115.393 59.783 117.103 60.7632 118.102C61.7534 118.959 63.5404 119.479 66.3293 119.479L153 119.479L153 141.49L41.1348 141.49L41.1348 119.479L47.2237 119.479C45.6839 118.496 44.4246 117.234 43.459 115.692C41.8887 113.185 41.1348 109.999 41.1348 106.191L41.1348 98.2441C41.1348 91.2399 42.8396 85.8411 46.3874 82.197C49.9383 78.5497 55.2044 76.7946 62.035 76.7946L153 76.7946ZM48.8206 119.479C49.4195 119.778 50.0574 120.041 50.7342 120.268L41.9196 120.268L41.9196 140.702L152.215 140.702L152.215 120.268L66.3293 120.268C63.4664 120.268 61.4323 119.738 60.2269 118.678C59.0214 117.467 58.4187 115.5 58.4187 112.775L58.4187 104.828C58.4187 102.104 58.8708 100.287 59.7748 99.3793C60.5282 98.4711 62.261 98.0171 64.9732 98.0171L152.215 98.0171L152.215 77.5829L62.035 77.5829C48.6247 77.5829 41.9196 84.47 41.9196 98.2441L41.9196 106.191C41.9196 112.753 44.2199 117.183 48.8206 119.479ZM107.14 22.6628L107.115 22.6881C106.799 23.0051 106.511 23.5361 106.304 24.3652C106.099 25.1896 105.989 26.2555 105.989 27.5797L105.989 39.1591C105.989 46.3085 104.306 51.817 100.802 55.5373C97.2897 59.2657 92.0768 61.0626 85.3146 61.0626L62.035 61.0626C55.1999 61.0626 49.9316 59.2671 46.3815 55.5405C42.8375 51.8204 41.1348 46.3105 41.1348 39.1591L41.1348 22.5847C41.1348 15.3595 42.8365 9.79407 46.3786 6.03595C49.9283 2.26977 55.1976 0.454038 62.035 0.454038L73.4425 0.454037L73.4425 22.0109L64.0691 22.0109C62.7494 22.0109 61.7111 22.1221 60.9335 22.3259C60.1478 22.5317 59.7037 22.812 59.4736 23.0894L59.4509 23.1169L59.4257 23.1421C59.1101 23.4592 58.8214 23.9901 58.615 24.8193C58.4099 25.6437 58.2994 26.7095 58.2994 28.0337L58.2994 33.483C58.2994 34.8072 58.4099 35.873 58.615 36.6974C58.8214 37.5265 59.1101 38.0576 59.4257 38.3746L59.4509 38.3998L59.4736 38.4273C59.7037 38.7047 60.1478 38.985 60.9335 39.1909C61.7111 39.3947 62.7494 39.5059 64.0691 39.5059L83.0544 39.5059C84.3727 39.5059 85.4337 39.395 86.2543 39.1889C87.0578 38.9871 87.5799 38.707 87.8982 38.3998C88.1503 38.0824 88.3875 37.5504 88.5581 36.7278C88.7317 35.8909 88.8241 34.8138 88.8241 33.483L88.8241 21.6765C88.8241 14.5987 90.5278 9.14434 94.0737 5.46228C97.6243 1.77526 102.891 -4.49753e-06 109.724 -4.7962e-06L132.326 -5.78415e-06C139.088 -6.07973e-06 144.301 1.79687 147.813 5.52532C151.317 9.2456 153 14.7541 153 21.9036L153 38.7049C153 45.8543 151.317 51.3629 147.813 55.0832C144.301 58.8116 139.088 60.6085 132.326 60.6085L120.692 60.6085L120.692 39.0518L130.066 39.0518C131.384 39.0518 132.445 38.9409 133.266 38.7348C134.069 38.533 134.591 38.2529 134.909 37.9457C135.162 37.6282 135.399 37.0962 135.569 36.2737C135.743 35.4368 135.835 34.3597 135.835 33.0288L135.835 27.5797C135.835 26.2488 135.743 25.1718 135.569 24.3348C135.399 23.5123 135.162 22.9803 134.909 22.6628C134.591 22.3557 134.069 22.0755 133.266 21.8738C132.445 21.6677 131.384 21.5567 130.066 21.5567L111.758 21.5567C110.439 21.5567 109.4 21.668 108.623 21.8718C107.837 22.0776 107.393 22.358 107.163 22.6354L107.14 22.6628ZM135.49 22.1307C136.243 23.0388 136.62 24.8552 136.62 27.5797L136.62 33.0288C136.62 35.7534 136.243 37.5697 135.49 38.4779C134.586 39.386 132.778 39.8402 130.066 39.8402L121.477 39.8402L121.477 59.8202L132.326 59.8202C145.585 59.8202 152.215 52.7817 152.215 38.7049L152.215 21.9036C152.215 7.82671 145.585 0.788385 132.326 0.788385L109.724 0.788386C96.314 0.788387 89.6089 7.75103 89.6089 21.6765L89.6089 33.483C89.6089 36.2075 89.2322 38.0239 88.4788 38.932C87.5748 39.8402 85.7666 40.2942 83.0544 40.2942L64.0691 40.2942C61.3569 40.2942 59.6242 39.8402 58.8708 38.932C57.9667 38.0239 57.5147 36.2075 57.5147 33.483L57.5147 28.0337C57.5147 25.3092 57.9667 23.4929 58.8708 22.5847C59.6242 21.6765 61.3569 21.2225 64.0691 21.2225L72.6577 21.2225L72.6577 1.24237L62.035 1.24237C48.6247 1.24237 41.9196 8.3565 41.9196 22.5847L41.9196 39.1591C41.9196 53.2359 48.6247 60.2742 62.035 60.2742L85.3146 60.2742C98.5742 60.2742 105.204 53.2359 105.204 39.1591L105.204 27.5797C105.204 24.8552 105.656 23.0388 106.56 22.1307C107.313 21.2225 109.046 20.7684 111.758 20.7684L130.066 20.7684C132.778 20.7684 134.586 21.2225 135.49 22.1307ZM41.1348 204.982L41.1348 180.688C41.1348 173.537 42.8375 168.027 46.3815 164.307C49.9316 160.58 55.1999 158.785 62.035 158.785L132.326 158.785C139.088 158.785 144.301 160.581 147.813 164.31C151.317 168.03 153 173.539 153 180.688L153 204.982C153 212.058 151.316 217.511 147.81 221.193C144.298 224.882 139.086 226.659 132.326 226.659L62.035 226.659C55.2022 226.659 49.935 224.883 46.3844 221.196C42.8385 217.514 41.1348 212.06 41.1348 204.982ZM129.388 180.568L64.7472 180.568C63.4289 180.568 62.3679 180.679 61.5473 180.885C60.7219 181.093 60.1933 181.383 59.8777 181.7C59.5621 182.017 59.2734 182.548 59.0671 183.377C58.8619 184.201 58.7515 185.267 58.7515 186.591L58.7515 199.079C58.7515 200.403 58.8619 201.469 59.0671 202.293C59.2679 203.1 59.5468 203.625 59.8525 203.945C60.1686 204.198 60.6981 204.436 61.517 204.608C62.3502 204.782 63.4223 204.875 64.7472 204.875L129.388 204.875C130.713 204.875 131.785 204.782 132.618 204.608C133.437 204.436 133.966 204.198 134.282 203.945C134.588 203.625 134.867 203.1 135.068 202.293C135.273 201.469 135.383 200.403 135.383 199.079L135.383 186.591C135.383 185.267 135.273 184.201 135.068 183.377C134.861 182.548 134.573 182.017 134.257 181.7C133.942 181.383 133.413 181.093 132.588 180.885C131.767 180.679 130.706 180.568 129.388 180.568ZM134.812 204.528C133.908 205.285 132.1 205.663 129.388 205.663L64.7472 205.663C62.035 205.663 60.2269 205.285 59.3228 204.528C58.4187 203.62 57.9667 201.803 57.9667 199.079L57.9667 186.591C57.9667 183.867 58.4187 182.05 59.3228 181.142C60.2269 180.234 62.035 179.78 64.7472 179.78L129.388 179.78C132.1 179.78 133.908 180.234 134.812 181.142C135.716 182.05 136.168 183.867 136.168 186.591L136.168 199.079C136.168 201.803 135.716 203.62 134.812 204.528ZM0.784757 265.543L0.784756 244.201L20.9001 244.201L20.9001 265.543L0.784757 265.543ZM152.215 265.089L41.9196 265.089L41.9196 244.655L152.215 244.655L152.215 265.089ZM41.9196 180.688L41.9196 204.982C41.9196 218.907 48.6247 225.87 62.035 225.87L132.326 225.87C145.585 225.87 152.215 218.907 152.215 204.982L152.215 180.688C152.215 166.611 145.585 159.573 132.326 159.573L62.035 159.573C48.6247 159.573 41.9196 166.611 41.9196 180.688Z" fill="white"/>
</svg>
