<svg width="151" height="48" viewBox="0 0 151 48" fill="none" xmlns="http://www.w3.org/2000/svg">
<path d="M15.6552 27.0968L15.6632 27.1048L15.672 27.1121C15.7648 27.1895 15.8521 27.3244 15.9156 27.5467C15.979 27.7686 16.014 28.0615 16.014 28.432V38.152C16.014 38.8967 15.8727 39.3343 15.6632 39.5511C15.4448 39.7265 14.9987 39.846 14.248 39.846H11.512C11.1147 39.846 10.7918 39.8167 10.5391 39.7617C10.2913 39.7078 10.1268 39.6328 10.0247 39.551C9.81529 39.3343 9.674 38.8967 9.674 38.152V33.04V32.79H9.424H1.144H0.894V33.04V39.304C0.894 41.7251 1.56151 43.5849 2.93792 44.8351C4.30976 46.081 6.3431 46.682 8.992 46.682H16.768C19.4169 46.682 21.4502 46.081 22.8221 44.8351C24.1985 43.5849 24.866 41.7251 24.866 39.304V27.424C24.866 25.0289 24.2236 23.1878 22.8966 21.9492C21.5728 20.7137 19.6104 20.118 17.056 20.118H11.368C10.9707 20.118 10.6478 20.0886 10.3951 20.0337C10.1473 19.9798 9.98283 19.9048 9.88074 19.823C9.67129 19.6063 9.53 19.1687 9.53 18.424V9.28C9.53 8.9095 9.56498 8.6166 9.62838 8.39468C9.6919 8.17238 9.77916 8.03747 9.87205 7.96006L9.88076 7.9528L9.88878 7.94478C10.1007 7.73282 10.5606 7.586 11.368 7.586H14.104C14.8582 7.586 15.2974 7.73092 15.5112 7.94478L15.5192 7.9528L15.528 7.96006C15.6208 8.03747 15.7081 8.17238 15.7716 8.39468C15.835 8.6166 15.87 8.9095 15.87 9.28V14.464V14.714H16.12H24.472H24.722V14.464V8.128C24.722 5.7076 24.0609 3.848 22.6969 2.59771C21.3371 1.3512 19.3214 0.75 16.696 0.75H8.776C6.15059 0.75 4.13491 1.3512 2.77507 2.59771C1.41111 3.848 0.75 5.7076 0.75 8.128V19.288C0.75 21.7284 1.37884 23.6043 2.67986 24.8674C3.97949 26.1292 5.90729 26.738 8.416 26.738H14.248C15.0022 26.738 15.4414 26.8829 15.6552 27.0968ZM48.1898 0.75H47.9398V1V29.0758L38.8517 0.923199L38.7958 0.75H38.6138H30.6218H30.3718V1V46.432V46.682H30.6218H38.2538H38.5038V46.432V17.9235L47.7359 46.5088L47.7918 46.682H47.9738H55.7498H55.9998V46.432V1V0.75H55.7498H48.1898ZM81.1567 46.4771L81.1943 46.682H81.4026H89.7546H90.0628L89.9993 46.3804L80.4233 0.948439L80.3814 0.75H80.1786H69.0186H68.8139L68.7735 0.950672L59.6295 46.3827L59.5693 46.682H59.8746H68.1546H68.3661L68.4012 46.4734L69.9501 37.25H79.4663L81.1567 46.4771ZM117.522 16.298H117.772V16.048V8.128C117.772 5.70693 117.105 3.84707 115.729 2.59694C114.357 1.35096 112.323 0.75 109.674 0.75H101.25C98.6015 0.75 96.5682 1.35096 95.1964 2.59694C93.8199 3.84707 93.1524 5.70693 93.1524 8.128V39.376C93.1524 41.7971 93.8199 43.6569 95.1964 44.9071C96.5682 46.153 98.6015 46.754 101.25 46.754H109.674C112.323 46.754 114.357 46.153 115.729 44.9071C117.105 43.6569 117.772 41.7971 117.772 39.376V31.6V31.35H117.522H109.17H108.92V31.6V38.512C108.92 39.2567 108.779 39.6943 108.57 39.9111C108.351 40.0865 107.905 40.206 107.154 40.206H103.77C103.02 40.206 102.574 40.0865 102.355 39.9111C102.146 39.6943 102.004 39.2567 102.004 38.512V8.992C102.004 8.6215 102.039 8.3286 102.103 8.10668C102.166 7.88438 102.254 7.74947 102.346 7.67206L102.355 7.6648L102.363 7.65678C102.577 7.44292 103.016 7.298 103.77 7.298H107.154C107.909 7.298 108.348 7.44292 108.562 7.65678L108.57 7.6648L108.578 7.67206C108.671 7.74947 108.759 7.88438 108.822 8.10668C108.885 8.3286 108.92 8.6215 108.92 8.992V16.048V16.298H109.17H117.522ZM150.235 1.09563L150.378 0.75H150.004H141.076H140.907L140.844 0.906898L131.894 23.2108V1V0.75H131.644H123.364H123.114V1V46.432V46.682H123.364H131.644H131.894V46.432V24.0106L140.771 46.5237L140.834 46.682H141.004H149.932H150.304L150.164 46.3378L140.914 23.6088L150.235 1.09563ZM71.1154 30.486L74.5695 10.4252L78.223 30.486H71.1154Z" stroke="white" stroke-opacity="0.2" stroke-width="0.5"/>
</svg>
